<svg id="Capa_1" enable-background="new 0 0 511.399 511.399" height="512" viewBox="0 0 511.399 511.399" width="512" xmlns="http://www.w3.org/2000/svg"><path id="XMLID_1487_" d="m294.825 135.257c-1.238-22.833-18.217-41.679-40.657-45.458-.032-.966-.093-1.934-.182-2.905-2.166-23.634-21.698-42.637-45.433-44.203-8.397-.558-16.567.982-23.938 4.411-9.115-10.979-22.751-17.571-37.645-17.571-14.706 0-28.273 6.501-37.407 17.317-6.86-3.075-14.401-4.544-22.099-4.223-24.971 1.033-45.074 20.566-46.761 45.433-.078 1.155-.117 2.306-.115 3.453-19.92 6.188-34.422 24.757-34.422 46.643 0 26.929 21.956 48.836 48.958 48.836l190.846-.207c13.714-.004 26.883-5.802 36.132-15.907 8.922-9.745 13.44-22.395 12.723-35.619z" fill="#ffe45c"/><path id="XMLID_608_" d="m294.825 135.257c-1.238-22.833-18.217-41.679-40.657-45.458-.032-.966-.093-1.934-.182-2.905-2.166-23.634-21.698-42.637-45.433-44.203-8.397-.558-16.567.982-23.938 4.411-8.383-10.097-20.592-16.468-34.083-17.429v157.215l95.438-.103c13.714-.004 26.883-5.802 36.132-15.907 8.922-9.747 13.44-22.397 12.723-35.621z" fill="#ffbc36"/><path id="XMLID_478_" d="m0 156.875 28.977 324.99h243.11l28.977-324.99z" fill="#f03049"/><path id="XMLID_612_" d="m150.532 156.875v324.99h121.555l28.977-324.99z" fill="#c30032"/><path id="XMLID_1464_" d="m99.809 481.868h-30.07l-23.08-324.99h30.07z" fill="#bde6fc"/><path id="XMLID_644_" d="m254.409 156.878-23.08 324.99h-30.08l23.09-324.99z" fill="#b2d3ff"/><path id="XMLID_523_" d="m135.532 156.875h30v324.99h-30z" fill="#bde6fc"/><path id="XMLID_614_" d="m150.532 156.875h15v324.99h-15z" fill="#b2d3ff"/><path id="XMLID_1477_" d="m197.807 282.797c-12.864-7.708-29.653-11.952-47.275-11.952s-34.411 4.245-47.275 11.952c-15.048 9.017-23.679 22.347-23.679 36.573s8.631 27.557 23.679 36.573c12.864 7.708 29.653 11.952 47.274 11.952s34.411-4.245 47.274-11.952c15.048-9.016 23.679-22.347 23.679-36.573.002-14.226-8.629-27.556-23.677-36.573z" fill="#c30032"/><path id="XMLID_642_" d="m197.807 282.797c-12.864-7.708-29.653-11.952-47.275-11.952v97.05c17.622 0 34.411-4.245 47.274-11.952 15.048-9.016 23.679-22.347 23.679-36.573.001-14.226-8.63-27.556-23.678-36.573z" fill="#a30034"/><path id="XMLID_624_" d="m317.49 155.512 11.545 326.353h160.947l11.546-326.353z" fill="#f03049"/><path id="XMLID_609_" d="m408.899 155.512v326.353h81.083l11.546-326.353z" fill="#c30032"/><circle id="XMLID_177_" cx="409.509" cy="313.688" fill="#c30032" r="49.01"/><path id="XMLID_1461_" d="m423.509 160.511h-30v-89.435h91.495v30h-61.495z" fill="#19cffc"/><path id="XMLID_495_" d="m408.899 71.076v89.435h14.61v-59.435h61.495v-30z" fill="#4ab8f7"/><path id="XMLID_1460_" d="m306.399 145.511h205v30h-205z" fill="#bde6fc"/><path id="XMLID_652_" d="m408.899 145.511h102.5v30h-102.5z" fill="#b2d3ff"/><path id="XMLID_655_" d="m409.509 264.678c-.205 0-.406.013-.61.016v97.99c.204.003.405.016.61.016 27.024 0 49.01-21.986 49.01-49.01s-21.986-49.012-49.01-49.012z" fill="#a30034"/></svg>